<?xml version="1.0" encoding="UTF-8"?>
<svg width="128" height="128" viewBox="0 0 128 128" fill="none" xmlns="http://www.w3.org/2000/svg">
    <rect width="128" height="128" rx="64" fill="#1E293B"/>
    <path d="M96 48H32C29.7909 48 28 49.7909 28 52V76C28 78.2091 29.7909 80 32 80H96C98.2091 80 100 78.2091 100 76V52C100 49.7909 98.2091 48 96 48Z" stroke="white" stroke-width="8"/>
    <path d="M84 64C84 68.4183 80.4183 72 76 72C71.5817 72 68 68.4183 68 64C68 59.5817 71.5817 56 76 56C80.4183 56 84 59.5817 84 64Z" fill="white"/>
</svg> 